<?xml version="1.0" encoding="utf-8"?>
<!-- Generator: Adobe Illustrator 19.0.0, SVG Export Plug-In . SVG Version: 6.00 Build 0)  -->
<svg version="1.1" id="layer" xmlns="http://www.w3.org/2000/svg" xmlns:xlink="http://www.w3.org/1999/xlink" x="0px" y="0px"
	 viewBox="-153 -46 652 652" style="enable-background:new -153 -46 652 652;" xml:space="preserve">
<style type="text/css">
	.st0{fill:#212121;}
	.st1{fill-rule:evenodd;clip-rule:evenodd;fill:#1976D2;}
</style>
<path class="st0" d="M60.8,217.6c19.6,0,31,11.3,31,26.6c0,10.2-6.5,18.7-14.6,21.3c9,2.1,17.7,10.3,17.7,23.3
	c0,16.1-12.1,27.9-30.6,28.2H23.5v-99.4H60.8z M59.1,275.6H45.1v23.3h13.9c8.6,0,13.8-4.5,13.8-11.7c0-6.8-5-11.5-13.5-11.6H59.1z
	 M56.9,235.9H45.1v21.5h12.1c7.7,0,12.8-4.1,12.8-10.8c0-6.4-4.3-10.6-12.8-10.7H56.9z M112.9,238.6c7,0,12.7-5.6,12.7-12.5
	c0-6.9-5.7-12.5-12.7-12.5c-6.7,0-12.3,5.6-12.3,12.5C100.6,233,106.2,238.6,112.9,238.6L112.9,238.6z M123.8,317v-69.6h-21.4V317
	H123.8z M156,317v-30.4c0-13.9,7.7-19,16.3-19c2.1,0,4.3,0.1,6.7,0.7v-21c-1.4-0.4-3.5-0.7-5.6-0.7c-5.6,0-14.4,2.3-18,10.1v-9.4
	h-20.6V317H156z M253.6,215.4v90l0,0.8v2l0,0.5v0.9l0,0.9l0,0.8l0,1l0,1.1l0.1,1.1l0,0.9l0.1,1.3h-20.5v-0.3l-0.1-0.7l-0.1-0.5
	l0-0.5l0-0.6l0-0.3l0-0.6l0-0.3v-0.5l0-0.3v-0.3l0-0.5V310c-3.2,4.7-10.2,8.3-18.6,8.3c-19.6,0-34.4-15.1-34.4-36.5
	c0-20.7,14-36.2,33.7-36.2c9.1,0,14.3,2.7,17,5.1l0.2,0.2c0.2,0.2,0.4,0.4,0.6,0.5l0.4,0.6l0.1,0.1l0.1,0.2l0.1,0.1l0.1,0.2l0,0
	v-37.2H253.6z M217.3,264.6c-8.2,0-15.7,5.6-15.7,17.2c0,11.4,7.4,17.4,15.7,17.4c8.3,0,15.7-5.9,15.7-17.4
	C232.9,270.3,225.5,264.6,217.3,264.6L217.3,264.6z M294.2,245.2c21.6,0,34.9,13.3,34.9,35.8c0,3-0.3,6.2-0.4,6.6h-48.4
	c0.4,7.8,7.6,13.4,15.8,13.4c7.7,0,12-3.6,14-9.1l17.8,5c-3.4,12.1-14.4,22.2-32.1,22.2c-19.2,0-36.3-13.8-36.3-37.2
	C259.5,259.5,276.1,245.2,294.2,245.2L294.2,245.2z M294.4,262c-8.9,0-13.4,6.6-13.8,11.8h27.8C308.2,268.5,304.5,262,294.4,262
	L294.4,262z M294.4,262 M360.6,343.7l42.9-96.3h-22.6l-15.4,37.2l-17-37.2h-23.8l29.3,60.2l-15.8,36.1H360.6z M433.3,245.2
	c21.6,0,34.9,13.3,34.9,35.8c0,3-0.3,6.2-0.4,6.6h-48.4c0.4,7.8,7.6,13.4,15.8,13.4c7.7,0,12-3.6,14-9.1l17.8,5
	c-3.4,12.1-14.5,22.2-32.1,22.2c-19.2,0-36.3-13.8-36.3-37.2C398.6,259.5,415.3,245.2,433.3,245.2L433.3,245.2z M433.6,262
	c-8.9,0-13.4,6.6-13.8,11.8h27.8C447.3,268.5,443.7,262,433.6,262L433.6,262z M433.6,262"/>
<path class="st1" d="M-53.7,272.4l-0.8-0.3l-27.8-11c-0.8-0.3-1.6-0.5-2.5-0.5c-3.4,0-6.1,2.8-6.1,6.1c0,1.4,0.4,2.7,1.3,3.7l0,0
	c0.1,0.2,0.3,0.3,0.4,0.5l20,22.8c2.5,2.8,6.1,4.5,10.1,4.5c7.5,0,13.6-6.1,13.6-13.5C-45.6,279.3-48.9,274.5-53.7,272.4
	 M-63.1,226.8c6.3-1.9,13.1,1.3,15.2,7.3c2.1,6-1.3,12.4-7.6,14.4c-6.3,1.9-13.1-1.3-15.2-7.3C-72.8,235.2-69.3,228.8-63.1,226.8
	 M-19.3,233.9c-0.9-1.3-2.3-2.1-3.7-2.5l-5.5-1.4c-0.1-0.2-0.1-0.5-0.2-0.8c-5.7-16.7-24.1-25.7-41.2-20.3
	c-8.9,2.8-15.6,9-19.3,16.7l-9.8,15.6l-23.3-9.2c-1.5-0.6-3.1-0.7-4.8-0.2c-3.6,1.2-5.5,4.9-4.4,8.5c0.2,0.5,0.4,1,0.7,1.4v0
	l24.3,32.2l0,0.1l0.1,0l17.4,24.4c7.6,13.6,24,21.8,39.9,16.6c17.1-5.5,26.4-23.5,20.8-40.1c-1.7-5.2-4.7-9.7-8.6-13.2
	c4.8-4.6,8.1-10.5,9.3-17l5.3-1.5v-0.1c0.5-0.1,0.9-0.4,1.3-0.7C-18,240.7-17.2,236.8-19.3,233.9"/>
</svg>
